<svg width="30" height="30" viewBox="0 0 30 30" fill="none" xmlns="http://www.w3.org/2000/svg">
<g clip-path="url(#clip0_2315_245)">
<g clip-path="url(#clip1_2315_245)">
<path d="M15.725 17.5596L13.6084 15.468L13.6334 15.443C15.0834 13.8263 16.1167 11.968 16.725 10.0013H19.1667V8.33464H13.3334V6.66797H11.6667V8.33464H5.83337V9.99297H15.1417C14.5834 11.6013 13.7 13.1263 12.5 14.4596C11.725 13.6013 11.0834 12.6596 10.575 11.668H8.90837C9.51671 13.0263 10.35 14.3096 11.3917 15.468L7.15004 19.6513L8.33337 20.8346L12.5 16.668L15.0917 19.2596L15.725 17.5596ZM20.4167 13.3346H18.75L15 23.3346H16.6667L17.6 20.8346H21.5584L22.5 23.3346H24.1667L20.4167 13.3346ZM18.2334 19.168L19.5834 15.5596L20.9334 19.168H18.2334Z" fill="black"/>
</g>
</g>
<defs>
<clipPath id="clip0_2315_245">
<rect width="30" height="30" fill="white"/>
</clipPath>
<clipPath id="clip1_2315_245">
<rect width="20" height="20" fill="white" transform="translate(5 5)"/>
</clipPath>
</defs>
</svg>
