<svg width="20" height="20" viewBox="0 0 20 20" fill="none" xmlns="http://www.w3.org/2000/svg">
<g clip-path="url(#clip0_2260_272)">
<path d="M10.7247 12.5596L8.60801 10.468L8.63301 10.443C10.083 8.8263 11.1163 6.96797 11.7247 5.0013H14.1663V3.33464H8.33301V1.66797H6.66634V3.33464H0.833008V4.99297H10.1413C9.58301 6.6013 8.69968 8.1263 7.49967 9.45964C6.72467 8.6013 6.08301 7.65964 5.57467 6.66797H3.90801C4.51634 8.0263 5.34967 9.30964 6.39134 10.468L2.14967 14.6513L3.33301 15.8346L7.49967 11.668L10.0913 14.2596L10.7247 12.5596ZM15.4163 8.33464H13.7497L9.99967 18.3346H11.6663L12.5997 15.8346H16.558L17.4997 18.3346H19.1663L15.4163 8.33464ZM13.233 14.168L14.583 10.5596L15.933 14.168H13.233Z" fill="black"/>
</g>
<defs>
<clipPath id="clip0_2260_272">
<rect width="20" height="20" fill="white"/>
</clipPath>
</defs>
</svg>
